<?xml version="1.0" encoding="utf-8"?>
<!-- Generator: Adobe Illustrator 28.0.0, SVG Export Plug-In . SVG Version: 6.00 Build 0)  -->
<svg version="1.1" id="Layer_1" xmlns="http://www.w3.org/2000/svg" xmlns:xlink="http://www.w3.org/1999/xlink" x="0px" y="0px"
	 viewBox="0 0 91.25 91.25" style="enable-background:new 0 0 91.25 91.25;" xml:space="preserve">
<g>
	<path d="M82.5,9.55v0.83c-1.37,0.16-2.34,0.3-2.93,0.42c-0.59,0.11-1.24,0.45-1.95,1c-1.11,0.85-1.8,1.64-2.08,2.39
		c-0.28,0.75-0.45,2.05-0.51,3.91c-0.1,0.29-0.1,0.59,0,0.88l2.49,53.42c0.06,2.25,0.6,4.18,1.61,5.81
		c1.01,1.63,3.21,2.46,6.59,2.49v0.78H62.44v-0.78c3.06-0.33,5.13-1.21,6.2-2.66c1.07-1.45,1.53-3.7,1.37-6.76l-2.49-55.27h-0.2
		L41.93,81.47L17.9,18.38h-0.2l-2.59,50.98c-0.13,2.8,0.04,4.97,0.51,6.52c0.47,1.55,1.23,2.65,2.27,3.32
		c1.04,0.67,2.59,1.16,4.64,1.49v0.78H4.43v-0.78c2.31-0.03,4.07-0.59,5.27-1.66c1.2-1.07,1.99-2.42,2.37-4.03s0.66-3.82,0.86-6.62
		l2.88-52.73c0-0.2-0.2-0.54-0.59-1.05c-0.39-0.5-0.87-1.01-1.44-1.51c-0.57-0.5-1.12-0.9-1.63-1.2c-1.11-0.68-2.07-1.08-2.88-1.2
		c-0.81-0.11-1.95-0.22-3.42-0.32V9.55h16.7l22.27,58.84L67.42,9.55H82.5z"/>
</g>
<g>
</g>
<g>
</g>
<g>
</g>
<g>
</g>
<g>
</g>
<g>
</g>
</svg>
