<?xml version="1.0" encoding="utf-8"?>
<!-- Generator: Adobe Illustrator 28.0.0, SVG Export Plug-In . SVG Version: 6.00 Build 0)  -->
<svg version="1.1" id="Layer_1" xmlns="http://www.w3.org/2000/svg" xmlns:xlink="http://www.w3.org/1999/xlink" x="0px" y="0px"
	 viewBox="0 0 106.01 106.01" style="enable-background:new 0 0 106.01 106.01;" xml:space="preserve">
<g>
	<path d="M97.61,17.33l1.51,1.56c-2.15,2.38-3.52,4.32-4.1,5.83s-0.88,3.8-0.88,6.86v37.74c0,3.87,0.33,6.31,0.98,7.3
		c0.66,0.99,1.52,1.49,2.61,1.49c0.88,0,2.16-0.75,3.83-2.25l1.42,1.9l-11.84,9.28c-2.84-1.43-4.76-3.08-5.76-4.96
		c-1-1.87-1.49-5.15-1.49-9.84V25.58l-8.2-6.3l-3.23,2.04V45.6h5.91l-5.91,7.32v20.57l3.82-3.12l1.45,1.57L59.7,87.05
		c-2.73-3.25-4.94-5.63-6.63-7.13c-1.23-1.07-2.7-2.05-4.38-2.93v-1.76c1.53-0.52,2.54-1.35,3.03-2.49
		c0.36-0.85,0.54-2.83,0.54-5.96V52.92H37.41v21.04c0,5.79-1.47,10.25-4.41,13.38c-2.94,3.12-6.78,4.69-11.53,4.69
		c-1.04,0-2.89-0.2-5.56-0.59c-1.82-0.26-3.14-0.39-3.95-0.39c-1.66,0-2.87,0.37-3.63,1.12c-0.76,0.75-1.15,2.02-1.15,3.81h-1.9
		c-0.39-1.4-0.58-2.57-0.58-3.52c0-1.76,0.46-3.41,1.37-4.96c0.91-1.55,2.13-2.69,3.66-3.44c1.17-0.59,3.32-1.03,6.45-1.32
		s5.44-1.28,6.93-2.95c1.5-1.68,2.25-4,2.25-6.96c0-4.65-1.09-8.49-3.27-11.5c-2.18-3.01-4.81-4.52-7.9-4.52
		c-2.41,0-4.39,1.14-5.95,3.42l-1.78-0.76c0.88-2.4,1.9-4.25,3.06-5.55c1.16-1.3,2.72-2.32,4.68-3.07c1.44-0.55,3.53-0.84,6.27-0.88
		c-0.03-0.98-0.05-1.71-0.05-2.2c0-5.47,1.09-10.07,3.28-13.82c2.18-3.74,5.61-7.19,10.28-10.33c4.67-3.14,11.38-6.67,20.14-10.57
		c3.09,1.66,5.18,3.32,6.27,4.98c1.09,1.66,1.7,4.07,1.83,7.23l19.12-12.21l11.69,8.74L97.61,17.33z M37.05,24.6
		c-2.8,2.21-4.63,4.32-5.46,6.32c-0.84,2-1.26,5.49-1.26,10.47v27.64c0,4.52-0.58,7.7-1.73,9.52c-1.15,1.82-3.38,3.4-6.69,4.74
		c1.46,0.1,2.69,0.15,3.7,0.15c2.4,0,4.36-0.42,5.87-1.25s2.5-1.86,2.97-3.08s0.71-3.36,0.71-6.42V35.88c0-2.8,0.17-5.13,0.52-6.98
		C35.9,27.76,36.36,26.33,37.05,24.6z M52.25,45.6V31.05c0-3.55-0.46-6.12-1.37-7.71c-0.92-1.59-2.55-2.88-4.9-3.86
		c-2.25,1.14-3.85,2.18-4.8,3.12c-1.27,1.33-2.22,2.93-2.84,4.79c-0.62,1.86-0.93,4.52-0.93,8.01v15.48l4.07-5.27H52.25z
		 M70.32,22.79l-8.11,5.28V45.6h8.11V22.79z M70.32,52.92h-8.11v12.67c0,4.37,0.3,7.17,0.89,8.41c0.95,2.12,2.23,3.18,3.84,3.18
		c0.84,0,1.96-0.64,3.38-1.91V52.92z"/>
</g>
<g>
</g>
<g>
</g>
<g>
</g>
<g>
</g>
<g>
</g>
<g>
</g>
</svg>
